#!OML:ASF E:\acrobat2\Project_11_07_03\Capture day 1\Session 1\Acrobat.ASF
:FULLY-SPECIFIED
:DEGREES
186
root 10.6898 18.0611 -38.3862 6.28985 -3.13335 -0.862587
lowerback -8.05819 0.195507 -0.316076
upperback -1.07235 0.320871 -0.921844
thorax 3.41161 0.159965 -0.740398
lowerneck 0.808122 -5.94444 -3.05941
upperneck 0.918332 -8.0545 8.69558
head 0.674157 -4.02556 3.25996
rclavicle 4.55341e-015 -4.37326e-015
rhumerus -38.7312 1.35984 -86.9928
rradius 28.1914
rwrist 4.44116
rhand 1.53458 -47.2828
rfingers 7.12502
rthumb 27.0594 -75.3639
lclavicle 4.55341e-015 -4.37326e-015
lhumerus -32.039 -17.6525 94.0137
lradius 20.814
lwrist 10.8002
lhand -11.1829 -9.57852
lfingers 7.12502
lthumb 14.8443 19.8697
rfemur 2.47767 8.48725 21.0801
rtibia 1.29074
rfoot -20.9399 -21.0003
rtoes 6.51956
lfemur -0.904343 -0.560571 -17.1061
ltibia 3.79593
lfoot -7.12279 -5.05253
ltoes 29.3743
187
root 10.6902 18.0612 -38.3865 6.2876 -3.12629 -0.882516
lowerback -8.04841 0.213858 -0.288597
upperback -1.04937 0.343438 -0.932289
thorax 3.43042 0.171629 -0.764214
lowerneck 0.720621 -5.95561 -3.02533
upperneck 0.91467 -8.06864 8.71183
head 0.688419 -4.03053 3.2559
rclavicle -3.81418e-015 1.03368e-014
rhumerus -38.6794 1.31252 -86.9989
rradius 28.1879
rwrist 4.4422
rhand 1.5321 -47.2166
rfingers 7.12502
rthumb 27.057 -75.2982
lclavicle -3.81418e-015 1.03368e-014
lhumerus -31.9462 -17.6824 93.9361
lradius 20.8332
lwrist 10.7334
lhand -11.1784 -9.51292
lfingers 7.12502
lthumb 14.8487 19.935
rfemur 2.47335 8.48089 21.1031
rtibia 1.30352
rfoot -20.9674 -21.0006
rtoes 6.48569
lfemur -0.903899 -0.554997 -17.08
ltibia 3.79719
lfoot -7.10419 -5.05103
ltoes 29.3926
188
root 10.6905 18.0613 -38.3866 6.28139 -3.12834 -0.896209
lowerback -8.01022 0.23316 -0.270008
upperback -1.04375 0.367629 -0.942754
thorax 3.41539 0.183952 -0.782958
lowerneck 0.621646 -5.96903 -2.98231
upperneck 0.944292 -8.08762 8.70538
head 0.714079 -4.03698 3.24146
rclavicle 2.71465e-015 -9.54166e-015
rhumerus -38.6553 1.26999 -87.0046
rradius 28.1872
rwrist 4.43515
rhand 1.54055 -47.1693
rfingers 7.12502
rthumb 27.0651 -75.2496
lclavicle 2.71465e-015 -9.54166e-015
lhumerus -31.8776 -17.6771 93.8552
lradius 20.8319
lwrist 10.6037
lhand -11.2461 -9.50208
lfingers 7.12502
lthumb 14.7834 19.9507
rfemur 2.47216 8.47565 21.1178
rtibia 1.31772
rfoot -20.9837 -20.9979
rtoes 6.45087
lfemur -0.893793 -0.56054 -17.0639
ltibia 3.79646
lfoot -7.09891 -5.04386
ltoes 29.4621
189
root 10.6911 18.0613 -38.3867 6.27536 -3.12867 -0.899517
lowerback -7.98327 0.247923 -0.266473
upperback -1.03462 0.387099 -0.94971
thorax 3.41011 0.193724 -0.790105
lowerneck 0.521056 -5.98205 -2.93972
upperneck 0.980365 -8.10627 8.68462
head 0.741349 -4.04313 3.22211
rclavicle -6.82701e-015 7.55382e-015
rhumerus -38.6271 1.23559 -87.0044
rradius 28.1851
rwrist 4.42653
rhand 1.55888 -47.1439
rfingers 7.12502
rthumb 27.0826 -75.2215
lclavicle -6.82701e-015 7.55382e-015
lhumerus -31.7974 -17.6492 93.7741
lradius 20.8033
lwrist 10.4415
lhand -11.371 -9.57703
lfingers 7.12502
lthumb 14.663 19.8845
rfemur 2.47399 8.47099 21.1193
rtibia 1.32462
rfoot -20.9878 -21.0005
rtoes 6.39924
lfemur -0.885231 -0.577857 -17.0627
ltibia 3.79612
lfoot -7.09107 -5.03406
ltoes 29.6156
190
root 10.6919 18.0612 -38.387 6.26977 -3.12238 -0.894571
lowerback -7.95528 0.263161 -0.261849
upperback -1.02183 0.407466 -0.965503
thorax 3.40813 0.204015 -0.806915
lowerneck 0.403331 -5.99993 -2.88506
upperneck 1.01837 -8.13152 8.6623
head 0.771989 -4.05209 3.19928
rclavicle 6.06293e-015 0
rhumerus -38.5889 1.17971 -87.0069
rradius 28.1783
rwrist 4.42816
rhand 1.57616 -47.1381
rfingers 7.12502
rthumb 27.0992 -75.2131
lclavicle 6.06293e-015 0
lhumerus -31.7084 -17.6539 93.6941
lradius 20.7645
lwrist 10.2934
lhand -11.5119 -9.71696
lfingers 7.12502
lthumb 14.5273 19.7544
rfemur 2.47747 8.46155 21.1097
rtibia 1.32625
rfoot -20.9806 -21.0044
rtoes 6.34193
lfemur -0.881122 -0.600267 -17.073
ltibia 3.79674
lfoot -7.07983 -5.02436
ltoes 29.7683
191
root 10.6926 18.0612 -38.3874 6.2637 -3.1142 -0.887561
lowerback -7.93684 0.27275 -0.260422
upperback -1.00906 0.420537 -0.977591
thorax 3.41132 0.210622 -0.818859
lowerneck 0.321601 -6.01351 -2.84372
upperneck 1.03183 -8.14974 8.64432
head 0.788876 -4.05891 3.18217
rclavicle -6.08778e-016 5.56597e-015
rhumerus -38.5512 1.13769 -87.0099
rradius 28.1646
rwrist 4.43409
rhand 1.59147 -47.1551
rfingers 7.12502
rthumb 27.1138 -75.2278
lclavicle -6.08778e-016 5.56597e-015
lhumerus -31.6278 -17.6589 93.6234
lradius 20.729
lwrist 10.1791
lhand -11.6236 -9.89394
lfingers 7.12502
lthumb 14.4197 19.5851
rfemur 2.48245 8.45204 21.0985
rtibia 1.32635
rfoot -20.9646 -21.0081
rtoes 6.2804
lfemur -0.877549 -0.61566 -17.0849
ltibia 3.79734
lfoot -7.0649 -5.02135
ltoes 29.9181
192
root 10.6932 18.0613 -38.3878 6.25712 -3.10962 -0.881698
lowerback -7.92796 0.278834 -0.258315
upperback -0.997842 0.428857 -0.987267
thorax 3.41818 0.214862 -0.829174
lowerneck 0.284281 -6.02319 -2.81455
upperneck 1.0161 -8.16118 8.63381
head 0.789194 -4.06399 3.17199
rclavicle 4.78326e-016 7.55382e-015
rhumerus -38.5239 1.10982 -87.0173
rradius 28.1565
rwrist 4.44193
rhand 1.60523 -47.1953
rfingers 7.12502
rthumb 27.127 -75.2659
lclavicle 4.78326e-016 7.55382e-015
lhumerus -31.5598 -17.6612 93.5573
lradius 20.7097
lwrist 10.1172
lhand -11.6715 -10.0767
lfingers 7.12502
lthumb 14.3736 19.4057
rfemur 2.48815 8.4467 21.0902
rtibia 1.32676
rfoot -20.9451 -21.0117
rtoes 6.22204
lfemur -0.872024 -0.616312 -17.0929
ltibia 3.79555
lfoot -7.05214 -5.02828
ltoes 30.0111
193
root 10.6935 18.0615 -38.3882 6.25031 -3.10846 -0.87873
lowerback -7.91603 0.281907 -0.258634
upperback -0.994625 0.433058 -0.991258
thorax 3.41493 0.216973 -0.832708
lowerneck 0.281973 -6.03057 -2.79424
upperneck 0.985584 -8.16868 8.62056
head 0.778713 -4.06827 3.16405
rclavicle 2.70223e-015 3.18055e-015
rhumerus -38.52 1.10243 -87.0265
rradius 28.1638
rwrist 4.44292
rhand 1.61712 -47.2585
rfingers 7.12502
rthumb 27.1384 -75.3273
lclavicle 2.70223e-015 3.18055e-015
lhumerus -31.5117 -17.657 93.5013
lradius 20.7113
lwrist 10.1064
lhand -11.6482 -10.2126
lfingers 7.12502
lthumb 14.396 19.2682
rfemur 2.49354 8.44663 21.0868
rtibia 1.3282
rfoot -20.9304 -21.0148
rtoes 6.21037
lfemur -0.865401 -0.606786 -17.0954
ltibia 3.79077
lfoot -7.05241 -5.04086
ltoes 29.967
194
root 10.6937 18.0618 -38.3887 6.24359 -3.10877 -0.876373
lowerback -7.88636 0.281187 -0.265778
upperback -1.00771 0.432235 -0.988983
thorax 3.38475 0.216423 -0.826546
lowerneck 0.297026 -6.03601 -2.78149
upperneck 0.969515 -8.17443 8.59625
head 0.769499 -4.07183 3.15417
rclavicle 4.96962e-015 -7.55382e-015
rhumerus -38.5482 1.12154 -87.0389
rradius 28.1836
rwrist 4.43075
rhand 1.62028 -47.3322
rfingers 7.12502
rthumb 27.1414 -75.4006
lclavicle 4.96962e-015 -7.55382e-015
lhumerus -31.4996 -17.6496 93.4626
lradius 20.7364
lwrist 10.1477
lhand -11.5892 -10.2584
lfingers 7.12502
lthumb 14.4528 19.2184
rfemur 2.5004 8.45583 21.0862
rtibia 1.32646
rfoot -20.9241 -21.0231
rtoes 6.25706
lfemur -0.860046 -0.591177 -17.0959
ltibia 3.78801
lfoot -7.06647 -5.05385
ltoes 29.7663
195
root 10.6938 18.0622 -38.3893 6.23656 -3.11063 -0.868992
lowerback -7.83919 0.278318 -0.281261
upperback -1.03367 0.428937 -0.985974
thorax 3.33135 0.214508 -0.815274
lowerneck 0.308136 -6.04009 -2.77188
upperneck 0.979197 -8.18001 8.56627
head 0.769038 -4.07473 3.14242
rclavicle -8.82107e-016 -7.95139e-016
rhumerus -38.5974 1.15951 -87.0596
rradius 28.2081
rwrist 4.40366
rhand 1.60296 -47.3896
rfingers 7.12502
rthumb 27.1248 -75.4606
lclavicle -8.82107e-016 -7.95139e-016
lhumerus -31.5208 -17.6563 93.4388
lradius 20.7859
lwrist 10.2427
lhand -11.5239 -10.1998
lfingers 7.12502
lthumb 14.5157 19.2724
rfemur 2.51192 8.47301 21.081
rtibia 1.31606
rfoot -20.9228 -21.0372
rtoes 6.35347
lfemur -0.855383 -0.573485 -17.1023
ltibia 3.7899
lfoot -7.09263 -5.06209
ltoes 29.4109
196
root 10.6939 18.0626 -38.3897 6.23015 -3.11435 -0.858828
lowerback -7.78794 0.274445 -0.302705
upperback -1.06279 0.424653 -0.981197
thorax 3.27237 0.212026 -0.798945
lowerneck 0.310539 -6.04075 -2.76647
upperneck 1.00282 -8.18192 8.5377
head 0.77458 -4.07533 3.13146
rclavicle 5.77718e-015 6.75868e-015
rhumerus -38.6491 1.21466 -87.0865
rradius 28.2319
rwrist 4.36142
rhand 1.5648 -47.4175
rfingers 7.12502
rthumb 27.0883 -75.4942
lclavicle 5.77718e-015 6.75868e-015
lhumerus -31.5529 -17.674 93.4244
lradius 20.8464
lwrist 10.366
lhand -11.4662 -10.0577
lfingers 7.12502
lthumb 14.5714 19.4105
rfemur 2.52849 8.49802 21.0735
rtibia 1.29557
rfoot -20.9277 -21.055
rtoes 6.49054
lfemur -0.850415 -0.559383 -17.1129
ltibia 3.79235
lfoot -7.11279 -5.06502
ltoes 29.1086
197
root 10.694 18.0629 -38.39 6.22638 -3.1179 -0.852561
lowerback -7.74946 0.269643 -0.325171
upperback -1.08576 0.419192 -0.971129
thorax 3.22683 0.208949 -0.776643
lowerneck 0.312309 -6.03576 -2.77063
upperneck 1.02074 -8.17606 8.51896
head 0.778868 -4.07214 3.12579
rclavicle -1.10077e-014 2.70347e-014
rhumerus -38.6885 1.28431 -87.1144
rradius 28.2525
rwrist 4.3094
rhand 1.51253 -47.4068
rfingers 7.12502
rthumb 27.0383 -75.4912
lclavicle -1.10077e-014 2.70347e-014
lhumerus -31.571 -17.694 93.4138
lradius 20.8985
lwrist 10.4841
lhand -11.4519 -9.88352
lfingers 7.12502
lthumb 14.5852 19.5837
rfemur 2.54635 8.53101 21.0723
rtibia 1.26936
rfoot -20.9444 -21.0786
rtoes 6.61333
lfemur -0.84715 -0.548044 -17.1189
ltibia 3.79194
lfoot -7.10723 -5.0636
ltoes 29.0189
198
root 10.6942 18.0631 -38.3903 6.22503 -3.12038 -0.850573
lowerback -7.72099 0.264164 -0.343675
upperback -1.10361 0.412584 -0.959618
thorax 3.19218 0.205364 -0.755153
lowerneck 0.320119 -6.02532 -2.78241
upperneck 1.02428 -8.16224 8.5142
head 0.778081 -4.06541 3.12682
rclavicle 5.72748e-015 7.95139e-015
rhumerus -38.7127 1.35671 -87.1429
rradius 28.2641
rwrist 4.25639
rhand 1.45434 -47.3522
rfingers 7.12502
rthumb 26.9826 -75.4453
lclavicle 5.72748e-015 7.95139e-015
lhumerus -31.5755 -17.7211 93.4025
lradius 20.9358
lwrist 10.5736
lhand -11.487 -9.73525
lfingers 7.12502
lthumb 14.5513 19.7344
rfemur 2.55996 8.56616 21.077
rtibia 1.24738
rfoot -20.9739 -21.1049
rtoes 6.68734
lfemur -0.848289 -0.537631 -17.119
ltibia 3.79395
lfoot -7.08918 -5.05926
ltoes 29.0172
199
root 10.6943 18.063 -38.3905 6.22436 -3.12377 -0.849135
lowerback -7.70343 0.258579 -0.360213
upperback -1.11488 0.405877 -0.949205
thorax 3.17046 0.201775 -0.735866
lowerneck 0.334055 -6.0116 -2.79588
upperneck 1.01347 -8.14323 8.51685
head 0.771778 -4.0565 3.13121
rclavicle 6.27414e-016 1.11319e-014
rhumerus -38.7161 1.42458 -87.1692
rradius 28.2602
rwrist 4.20763
rhand 1.40576 -47.2701
rfingers 7.12502
rthumb 26.9361 -75.3703
lclavicle 6.27414e-016 1.11319e-014
lhumerus -31.5663 -17.7554 93.3886
lradius 20.9571
lwrist 10.623
lhand -11.5397 -9.65665
lfingers 7.12502
lthumb 14.5005 19.8166
rfemur 2.56613 8.59557 21.0814
rtibia 1.23779
rfoot -21.0062 -21.125
rtoes 6.73227
lfemur -0.852555 -0.529257 -17.118
ltibia 3.80426
lfoot -7.07656 -5.05987
ltoes 29.0646
